<svg width="38" height="38" viewBox="0 0 38 38" fill="none" xmlns="http://www.w3.org/2000/svg">
<path d="M19 38C29.4934 38 38 29.4934 38 19C38 8.50659 29.4934 0 19 0C8.50659 0 0 8.50659 0 19C0 29.4934 8.50659 38 19 38Z" fill="black"/>
<path d="M17.357 12.0141C17.5464 11.8859 17.6772 11.6879 17.7209 11.4634C17.7645 11.2389 17.7174 11.0063 17.5898 10.8165L15.0231 6.99354C14.9148 6.83101 14.7542 6.71036 14.568 6.65155C14.3817 6.59275 14.181 6.59932 13.999 6.67019C13.2746 6.94931 12.5681 7.27262 11.8834 7.6383L15.608 13.1717L17.357 12.0141Z" fill="white"/>
<path d="M28.5562 28.2524C28.6895 28.1108 28.7706 27.928 28.786 27.7342C28.8015 27.5403 28.7504 27.3469 28.6412 27.186L26.0692 23.359C26.0062 23.2646 25.9251 23.1838 25.8306 23.121C25.7362 23.0582 25.6302 23.0147 25.5189 22.993C25.4075 22.9714 25.293 22.972 25.1819 22.9949C25.0708 23.0177 24.9654 23.0623 24.8716 23.1262L23.1333 24.3123L26.8622 29.8393C27.4596 29.3465 28.0254 28.8164 28.5562 28.2524Z" fill="white"/>
<path d="M22.1466 24.972C20.6122 24.8368 17.9831 23.3997 16.2628 20.8404C14.5425 18.2812 14.1911 15.3095 14.6362 13.8374C14.7008 13.7878 14.7793 13.7297 14.8729 13.6675L11.1158 8.10231C10.3128 8.53436 9.6732 9.21711 9.29435 10.0465C7.08004 17.0201 16.3718 30.7982 23.6677 31.3545C24.5776 31.3126 25.4494 30.9766 26.152 30.397L22.3921 24.8201C22.297 24.8831 22.2149 24.935 22.1458 24.976L22.1466 24.972Z" fill="white"/>
</svg>
