<svg width="115" height="115" viewBox="0 0 115 115" fill="none" xmlns="http://www.w3.org/2000/svg">
<circle cx="57.5" cy="57.5" r="57.5" fill="#E8F4FF"/>
<path d="M71.3377 27.6549C70.5093 26.8261 69.5257 26.1686 68.4432 25.7201C67.3606 25.2715 66.2003 25.0406 65.0284 25.0406C63.8566 25.0406 62.6963 25.2715 61.6137 25.7201C60.5312 26.1686 59.5476 26.8261 58.7192 27.6549L57.0001 29.374L55.281 27.6549C54.4545 26.8175 53.4704 26.1518 52.3856 25.6961C51.3007 25.2405 50.1365 25.0039 48.9598 25C47.7832 24.9962 46.6174 25.2251 45.5295 25.6736C44.4417 26.1221 43.4533 26.7813 42.6213 27.6133C41.7893 28.4453 41.13 29.4337 40.6815 30.5215C40.233 31.6093 40.004 32.7751 40.0079 33.9517C40.0117 35.1284 40.2482 36.2926 40.7038 37.3775C41.1594 38.4624 41.8251 39.4464 42.6626 40.273L44.382 41.9917L57.0001 54.6106L69.6186 41.9917L71.3377 40.2726C72.1665 39.4442 72.824 38.4606 73.2725 37.3781C73.7211 36.2955 73.952 35.1352 73.952 33.9634C73.952 32.7916 73.7211 31.6312 73.2725 30.5487C72.824 29.4661 72.1665 28.4825 71.3377 27.6541V27.6549Z" stroke="#256CB3" stroke-width="4" stroke-linecap="round" stroke-linejoin="round"/>
<path d="M63.8277 36.3646C63.8275 36.2892 63.7974 36.217 63.7441 36.1637C63.6908 36.1104 63.6186 36.0803 63.5432 36.0801H59.845C59.7696 36.0799 59.6974 36.0499 59.6441 35.9966C59.5908 35.9433 59.5607 35.871 59.5605 35.7956V32.0975C59.5603 32.0221 59.5303 31.9498 59.477 31.8965C59.4237 31.8432 59.3514 31.8132 59.2761 31.813H54.7245C54.6491 31.8132 54.5768 31.8432 54.5235 31.8965C54.4702 31.9498 54.4402 32.0221 54.44 32.0975V35.7956C54.4398 35.871 54.4097 35.9433 54.3564 35.9966C54.3031 36.0499 54.2309 36.0799 54.1555 36.0801H50.4573C50.3819 36.0803 50.3097 36.1104 50.2564 36.1637C50.2031 36.217 50.1731 36.2892 50.1729 36.3646V40.9162C50.1731 40.9916 50.2031 41.0638 50.2564 41.1171C50.3097 41.1704 50.3819 41.2005 50.4573 41.2007H54.1555C54.2309 41.2009 54.3031 41.2309 54.3564 41.2842C54.4097 41.3375 54.4398 41.4098 54.44 41.4851V45.1833C54.4402 45.2587 54.4702 45.3309 54.5235 45.3843C54.5768 45.4376 54.6491 45.4676 54.7245 45.4678H59.2761C59.3514 45.4676 59.4237 45.4376 59.477 45.3843C59.5303 45.3309 59.5603 45.2587 59.5605 45.1833V41.4851C59.5607 41.4098 59.5908 41.3375 59.6441 41.2842C59.6974 41.2309 59.7696 41.2009 59.845 41.2007H63.5432C63.6186 41.2005 63.6908 41.1704 63.7441 41.1171C63.7974 41.0638 63.8275 40.9916 63.8277 40.9162V36.3646Z" stroke="#65B43E" stroke-width="4"/>
<path d="M45.8401 46.1486C44.8128 44.4101 42.8661 44.0522 41.5002 45.3584C40.1344 46.6646 39.8534 49.1447 40.8803 50.8835L44.5702 57.1495C44.7958 57.5478 44.902 58.0026 44.8763 58.4597C44.8505 58.9167 44.6938 59.3567 44.4248 59.7272L43.185 61.3076C43.0547 61.4978 42.8775 61.6511 42.6705 61.7526C42.4635 61.854 42.2337 61.9002 42.0036 61.8865C41.7735 61.8729 41.5508 61.7999 41.3572 61.6747C41.1636 61.5495 41.0057 61.3763 40.8989 61.1721L32.2003 47.8752V29.5732C32.2003 27.3902 30.815 25.6265 29.1003 25.6265C27.3855 25.6265 26.0003 27.3902 26.0003 29.5732V56.5082C25.9885 57.8121 26.3407 59.0934 27.0173 60.208L37.1027 76.7712C37.5898 77.5987 37.9306 78.504 38.1102 79.4472C38.2845 80.2983 38.8949 80.8779 39.5923 80.8779H52.3502C53.2028 80.8779 53.9002 79.9901 53.9002 78.9047V65.0919C53.9239 61.7711 53.0682 58.5031 51.4201 55.62L45.8401 46.1486ZM84.9001 25.6265C83.1854 25.6265 81.8001 27.3902 81.8001 29.5732V47.8752L73.1007 61.1701C72.9918 61.372 72.8331 61.5428 72.6397 61.6662C72.4463 61.7896 72.2245 61.8615 71.9955 61.8751C71.7664 61.8887 71.5377 61.8435 71.331 61.7438C71.1244 61.6441 70.9466 61.4933 70.8146 61.3056L69.5748 59.7252C69.3058 59.3547 69.1491 58.9148 69.1234 58.4577C69.0976 58.0007 69.2038 57.5458 69.4294 57.1475L73.1205 50.8823C74.1477 49.1439 73.8664 46.6646 72.5005 45.3572C71.1347 44.0498 69.1876 44.4089 68.1607 46.1474L62.5803 55.62C60.9321 58.5031 60.0765 61.7711 60.1002 65.0919V78.9047C60.1002 79.9901 60.7975 80.8779 61.6502 80.8779H74.4085C75.0964 80.8779 75.7163 80.2983 75.8905 79.4472C76.0702 78.504 76.411 77.5987 76.8981 76.7712L86.9827 60.208C87.6593 59.0934 88.0115 57.8121 87.9997 56.5082V29.5732C88.0001 27.3902 86.6149 25.6265 84.9001 25.6265Z" stroke="#57A456" stroke-width="4"/>
<path d="M75.768 80.9165H60.3589V89.6088H75.768V80.9165Z" stroke="#57A456" stroke-width="3"/>
<path d="M39.1091 81.5093V89.0163H53.3329V81.5093H39.1091ZM37.9238 80.324H54.5182V90.2016H37.9238V80.324Z" fill="#57A456"/>
</svg>
