<svg width="115" height="115" viewBox="0 0 115 115" fill="none" xmlns="http://www.w3.org/2000/svg">
<circle cx="57.5" cy="57.5" r="57.5" fill="#EEFFE2"/>
<path d="M79.142 28H36.142C34.5134 28.0016 32.9519 28.6493 31.8004 29.8011C30.6488 30.9528 30.0013 32.5144 30 34.143V71C30.0013 72.6288 30.649 74.1905 31.8007 75.3423C32.9525 76.494 34.5142 77.1417 36.143 77.143H47.157L57.642 87.628L68.128 77.142H79.142C80.7706 77.1407 82.3322 76.4932 83.4839 75.3416C84.6357 74.1901 85.2834 72.6286 85.285 71V34.143C85.2837 32.5142 84.636 30.9525 83.4843 29.8007C82.3325 28.649 80.7708 28.0013 79.142 28V28ZM79.142 71H65.585L57.642 78.943L49.7 71H36.143V34.143H79.143L79.142 71Z" fill="#57A456"/>
<path fill-rule="evenodd" clip-rule="evenodd" d="M47.0038 46.368C46.7869 46.368 46.5788 46.4541 46.4254 46.6076C46.272 46.761 46.1858 46.969 46.1858 47.186V52.096C46.1858 52.313 46.0996 52.5212 45.9461 52.6747C45.7926 52.8282 45.5844 52.9145 45.3673 52.9145C45.1503 52.9145 44.9421 52.8282 44.7886 52.6747C44.6351 52.5212 44.5488 52.313 44.5488 52.096V47.186C44.5488 46.5349 44.8075 45.9104 45.2679 45.45C45.7283 44.9896 46.3527 44.731 47.0038 44.731H51.9138C52.1309 44.731 52.3391 44.8172 52.4926 44.9707C52.6461 45.1242 52.7323 45.3324 52.7323 45.5495C52.7323 45.7665 52.6461 45.9747 52.4926 46.1282C52.3391 46.2817 52.1309 46.368 51.9138 46.368H47.0038ZM62.5488 45.549C62.5488 45.4412 62.5701 45.3345 62.6115 45.235C62.6528 45.1355 62.7135 45.0451 62.7898 44.9691C62.8662 44.8931 62.9569 44.833 63.0566 44.7921C63.1563 44.7512 63.2631 44.7304 63.3708 44.731H68.2808C68.9319 44.731 69.5564 44.9896 70.0168 45.45C70.4772 45.9104 70.7358 46.5349 70.7358 47.186V52.096C70.7358 52.313 70.6496 52.5212 70.4961 52.6747C70.3426 52.8282 70.1344 52.9145 69.9173 52.9145C69.7003 52.9145 69.4921 52.8282 69.3386 52.6747C69.1851 52.5212 69.0988 52.313 69.0988 52.096V47.186C69.0988 46.969 69.0127 46.761 68.8593 46.6076C68.7058 46.4541 68.4978 46.368 68.2808 46.368H63.3708C63.263 46.3685 63.1561 46.3477 63.0563 46.3068C62.9566 46.2658 62.8659 46.2056 62.7895 46.1294C62.7131 46.0533 62.6525 45.9629 62.6112 45.8632C62.5699 45.7636 62.5487 45.6568 62.5488 45.549V45.549ZM45.3668 62.731C45.5838 62.731 45.7918 62.8171 45.9453 62.9706C46.0987 63.124 46.1848 63.332 46.1848 63.549V68.459C46.1848 68.6759 46.271 68.884 46.4244 69.0374C46.5778 69.1908 46.7859 69.277 47.0028 69.277H51.9128C52.1299 69.277 52.3381 69.3632 52.4916 69.5167C52.6451 69.6702 52.7313 69.8784 52.7313 70.0955C52.7313 70.3125 52.6451 70.5207 52.4916 70.6742C52.3381 70.8277 52.1299 70.914 51.9128 70.914H47.0038C46.3534 70.914 45.7296 70.6559 45.2693 70.1963C44.809 69.7368 44.5499 69.1134 44.5488 68.463V63.553C44.5483 63.4452 44.5691 63.3384 44.61 63.2387C44.6508 63.139 44.711 63.0483 44.787 62.972C44.863 62.8956 44.9534 62.835 45.0529 62.7936C45.1524 62.7523 45.2591 62.731 45.3668 62.731V62.731ZM69.9178 62.731C70.1348 62.731 70.3428 62.8171 70.4963 62.9706C70.6497 63.124 70.7358 63.332 70.7358 63.549V68.459C70.7358 69.1101 70.4772 69.7345 70.0168 70.1949C69.5564 70.6553 68.9319 70.914 68.2808 70.914H63.3708C63.1538 70.914 62.9456 70.8277 62.7921 70.6742C62.6386 70.5207 62.5523 70.3125 62.5523 70.0955C62.5523 69.8784 62.6386 69.6702 62.7921 69.5167C62.9456 69.3632 63.1538 69.277 63.3708 69.277H68.2808C68.3883 69.277 68.4946 69.2558 68.5939 69.2147C68.6931 69.1736 68.7833 69.1133 68.8593 69.0374C68.9352 68.9614 68.9955 68.8712 69.0366 68.772C69.0777 68.6728 69.0988 68.5664 69.0988 68.459V63.549C69.0988 63.4415 69.12 63.335 69.1612 63.2357C69.2024 63.1364 69.2627 63.0462 69.3388 62.9702C69.4148 62.8942 69.5051 62.834 69.6045 62.7929C69.7039 62.7519 69.8103 62.7308 69.9178 62.731Z" fill="#2B73A9"/>
<path fill-rule="evenodd" clip-rule="evenodd" d="M49.4588 67.6449C49.2421 67.65 49.0266 67.611 48.8255 67.5303C48.6243 67.4495 48.4416 67.3288 48.2885 67.1753C48.1355 67.0219 48.0151 66.8389 47.9349 66.6375C47.8547 66.4361 47.8162 66.2206 47.8218 66.0039C47.8218 64.3669 49.4588 59.4569 57.6418 59.4569C65.8248 59.4569 67.4618 64.3669 67.4618 66.0039C67.4675 66.2208 67.4289 66.4367 67.3485 66.6382C67.2681 66.8398 67.1475 67.0229 66.9941 67.1764C66.8407 67.3299 66.6576 67.4506 66.4561 67.5312C66.2546 67.6117 66.0388 67.6504 65.8218 67.6449H49.4588ZM57.6428 57.8249C58.6138 57.8247 59.563 57.5366 60.3703 56.997C61.1776 56.4574 61.8068 55.6905 62.1783 54.7934C62.5498 53.8963 62.6469 52.9091 62.4574 51.9567C62.2679 51.0044 61.8003 50.1296 61.1137 49.443C60.4271 48.7564 59.5523 48.2888 58.6 48.0993C57.6476 47.9098 56.6605 48.0069 55.7633 48.3784C54.8662 48.7499 54.0993 49.3791 53.5597 50.1864C53.0201 50.9937 52.732 51.9429 52.7318 52.9139C52.7318 54.2161 53.2491 55.465 54.1699 56.3858C55.0907 57.3066 56.3396 57.8239 57.6418 57.8239L57.6428 57.8249Z" fill="#2B73A9"/>
</svg>
