<svg width="115" height="115" viewBox="0 0 115 115" fill="none" xmlns="http://www.w3.org/2000/svg">
<circle cx="57.5" cy="57.5" r="57.5" fill="#E8F4FF"/>
<path d="M65.5275 40.53C65.5285 43.0094 64.7942 45.4334 63.4174 47.4954C62.0407 49.5575 60.0833 51.1649 57.7929 52.1144C55.5025 53.0639 52.982 53.3129 50.5501 52.8298C48.1183 52.3467 45.8843 51.1532 44.1307 49.4004C42.3772 47.6475 41.1828 45.414 40.6987 42.9823C40.2147 40.5506 40.4626 38.03 41.4112 35.7392C42.3598 33.4485 43.9665 31.4905 46.0279 30.1129C48.0894 28.7353 50.5131 28 52.9925 28C56.3161 28 59.5037 29.32 61.8543 31.6696C64.205 34.0193 65.5262 37.2064 65.5275 40.53V40.53Z" fill="#5DAB4B"/>
<path d="M61.0254 75.9861H74.6084V78.7022H61.0254V75.9861Z" fill="#5DAB4B"/>
<path d="M49.3833 79.867V85.688C49.3833 86.2025 49.5877 86.696 49.9516 87.0598C50.3154 87.4236 50.8088 87.628 51.3233 87.628H84.3103C84.5651 87.628 84.8174 87.5778 85.0527 87.4803C85.2881 87.3828 85.502 87.2399 85.6821 87.0598C85.8623 86.8796 86.0052 86.6658 86.1027 86.4304C86.2002 86.195 86.2503 85.9428 86.2503 85.688V66.282C86.2503 66.0272 86.2002 65.775 86.1027 65.5396C86.0052 65.3042 85.8623 65.0904 85.6821 64.9102C85.502 64.7301 85.2881 64.5872 85.0527 64.4897C84.8174 64.3922 84.5651 64.342 84.3103 64.342H70.7273V61.491C70.7273 60.9763 70.5229 60.4828 70.159 60.1189C69.7951 59.7549 69.3015 59.5505 68.7868 59.5505C68.2722 59.5505 67.7786 59.7549 67.4147 60.1189C67.0508 60.4828 66.8463 60.9763 66.8463 61.491V64.343H62.9663V57.397C59.6689 56.8584 56.3335 56.5859 52.9923 56.582C45.6244 56.5508 38.339 58.1339 31.6483 61.22C30.5471 61.7396 29.6181 62.5642 28.9715 63.596C28.3248 64.6278 27.9878 65.8234 28.0003 67.041V79.867H49.3833ZM82.3703 83.748H53.2643V68.224H66.8473V69.039C66.8473 69.5536 67.0518 70.0472 67.4157 70.4111C67.7796 70.7751 68.2732 70.9795 68.7878 70.9795C69.3025 70.9795 69.7961 70.7751 70.16 70.4111C70.5239 70.0472 70.7283 69.5536 70.7283 69.039V68.224H82.3703V83.748Z" fill="#5DAB4B"/>
</svg>
