<svg width="115" height="115" viewBox="0 0 115 115" fill="none" xmlns="http://www.w3.org/2000/svg">
<circle cx="57.5" cy="57.5" r="57.5" fill="#EEFFE2"/>
<path d="M85.494 81.4294H29.033V67.9594C27.5312 67.24 26.1664 66.264 25 65.0754V81.4294C25 82.4991 25.4249 83.5249 26.1812 84.2812C26.9376 85.0375 27.9634 85.4624 29.033 85.4624H85.494C86.5636 85.4624 87.5894 85.0375 88.3458 84.2812C89.1021 83.5249 89.527 82.4991 89.527 81.4294V65.0754C88.3691 66.2684 87.0021 67.2388 85.494 67.9384V81.4294Z" fill="#256CB3"/>
<path d="M71.3788 70.1364C71.9135 70.1364 72.4263 69.924 72.8043 69.5459C73.1824 69.1678 73.3948 68.655 73.3948 68.1204V57.1104H69.3618V68.1204C69.3618 68.3852 69.414 68.6474 69.5154 68.8921C69.6167 69.1367 69.7653 69.359 69.9526 69.5462C70.14 69.7334 70.3623 69.8819 70.607 69.9832C70.8517 70.0844 71.114 70.1365 71.3788 70.1364V70.1364Z" fill="#65B43E"/>
<path d="M87.51 37.0664H69.362V33.8004C69.3409 32.5096 68.8093 31.2797 67.8834 30.3801C66.9575 29.4804 65.7129 28.9843 64.422 29.0004H50.1C48.8091 28.9843 47.5645 29.4804 46.6386 30.3801C45.7127 31.2797 45.1811 32.5096 45.16 33.8004V37.0674H27.016C26.4813 37.0674 25.9685 37.2798 25.5905 37.6579C25.2124 38.0359 25 38.5487 25 39.0834V55.2144C24.9995 56.5387 25.2599 57.8502 25.7663 59.0738C26.2727 60.2975 27.0153 61.4094 27.9515 62.346C28.8878 63.2826 29.9994 64.0256 31.2229 64.5325C32.4463 65.0395 33.7577 65.3004 35.082 65.3004H41.131V68.1204C41.131 68.6552 41.3435 69.1681 41.7216 69.5463C42.0998 69.9244 42.6127 70.1369 43.1475 70.1369C43.6823 70.1369 44.1952 69.9244 44.5734 69.5463C44.9515 69.1681 45.164 68.6552 45.164 68.1204V57.1104H41.132V61.2644H35.082C33.4777 61.2644 31.9391 60.6271 30.8047 59.4927C29.6703 58.3583 29.033 56.8197 29.033 55.2154V41.1004H85.494V55.2144C85.494 56.8187 84.8567 58.3573 83.7223 59.4917C82.5879 60.6261 81.0493 61.2634 79.445 61.2634H77.428V65.3004H79.444C80.7684 65.3005 82.0799 65.0397 83.3034 64.5328C84.527 64.026 85.6388 63.283 86.5751 62.3464C87.5115 61.4097 88.2541 60.2978 88.7606 59.0741C89.2671 57.8503 89.5275 56.5388 89.527 55.2144V39.0834C89.5271 38.8185 89.4751 38.5561 89.3737 38.3113C89.2724 38.0666 89.1239 37.8442 88.9365 37.6568C88.7492 37.4695 88.5268 37.321 88.282 37.2196C88.0373 37.1183 87.7749 37.0662 87.51 37.0664V37.0664ZM65.329 37.0664H49.2V33.9004C49.2103 33.6668 49.3104 33.4463 49.4794 33.2847C49.6484 33.1232 49.8732 33.0331 50.107 33.0334H64.442C64.5559 33.0307 64.6691 33.0505 64.7753 33.0917C64.8816 33.1328 64.9786 33.1944 65.061 33.2731C65.1434 33.3518 65.2094 33.4459 65.2554 33.5501C65.3014 33.6543 65.3264 33.7665 65.329 33.8804V37.0664Z" fill="#65B43E"/>
<path d="M59.8689 66.947H55.1269C54.7082 66.9467 54.3067 66.7803 54.0106 66.4842C53.7146 66.1882 53.5481 65.7867 53.5479 65.368V61.42H49.6059C49.1873 61.4197 48.786 61.2534 48.49 60.9576C48.1939 60.6617 48.0274 60.2605 48.0269 59.842V55.1C48.0271 54.6813 48.1936 54.2798 48.4896 53.9838C48.7857 53.6877 49.1872 53.5213 49.6059 53.521H53.5529V49.579C53.5531 49.1612 53.7189 48.7605 54.0139 48.4645C54.3088 48.1686 54.709 48.0016 55.1269 48H59.8639C60.0715 47.9996 60.2772 48.0402 60.4692 48.1193C60.6612 48.1985 60.8356 48.3147 60.9827 48.4614C61.1297 48.608 61.2464 48.7822 61.326 48.974C61.4057 49.1658 61.4467 49.3713 61.4469 49.579V53.526H65.3939C65.8119 53.526 66.2128 53.6916 66.509 53.9867C66.8051 54.2817 66.9723 54.682 66.9739 55.1V59.837C66.9733 60.2556 66.8068 60.6569 66.5108 60.9529C66.2148 61.2489 65.8135 61.4155 65.3949 61.416H61.4469V65.363C61.4472 65.5706 61.4067 65.7763 61.3277 65.9683C61.2486 66.1602 61.1324 66.3347 60.9859 66.4818C60.8394 66.6289 60.6653 66.7457 60.4736 66.8255C60.282 66.9053 60.0765 66.9466 59.8689 66.947V66.947ZM49.6059 55.1V59.837H55.1269V65.363H59.8639V59.842H65.3899V55.1H59.8689V49.579H55.1269V55.1H49.6059Z" fill="#65B43E"/>
<path d="M57.5269 68.5C63.602 68.5 68.5269 63.5751 68.5269 57.5C68.5269 51.4249 63.602 46.5 57.5269 46.5C51.4517 46.5 46.5269 51.4249 46.5269 57.5C46.5269 63.5751 51.4517 68.5 57.5269 68.5Z" stroke="#256CB3"/>
</svg>
